<svg xmlns="http://www.w3.org/2000/svg" xmlns:xlink="http://www.w3.org/1999/xlink" viewBox="0 0 1920 1920"><defs><style>.cls-1{fill:none;}.cls-2{clip-path:url(#clip-path);}.cls-3{fill:#5a5aad;}.cls-4{fill:#e5c733;}.cls-5{fill:#ab7ce8;}.cls-6{fill:#e6ed7e;}.cls-7{fill:#c894ea;}.cls-8{fill:#5c5e6d;}.cls-9{clip-path:url(#clip-path-2);}.cls-10{fill:#d6aae8;}.cls-11{fill:#e7ccf2;}.cls-12{fill:#5b3991;}</style><clipPath id="clip-path"><polygon class="cls-1" points="555.1 1064.95 966.95 31.1 1364.9 1064.95 555.1 1064.95"/></clipPath><clipPath id="clip-path-2"><path class="cls-1" d="M1564.8,1549.3c-73.45-4.59-417.87-55.47-600.57-56.78H964c-182.71,1.31-527.13,52.19-600.57,56.78-20.22,1.26-100-10.18-115.77-23.51,2.2,14.33,30.49,57.59,38.08,68,79.32,108.3,177.78,168,313.32,215.61,119.16,41.85,241.05,59.41,364.94,58.91h0c124,.52,246-17,365.18-58.91,135.55-47.6,234-107.31,313.32-215.61,7.59-10.37,35.88-53.63,38.08-68C1664.79,1539.12,1585,1550.56,1564.8,1549.3Z"/></clipPath></defs><title>3Artboard 1</title><g id="Layer_2" data-name="Layer 2"><g id="froggo"><g class="cls-2"><polygon class="cls-3" points="555.1 1064.95 966.95 31.1 1364.9 1064.95 555.1 1064.95"/><polygon class="cls-4" points="812.2 646.07 796.63 722.67 850.9 778.92 773.24 787.78 736.51 856.78 704.09 785.66 627.12 772.05 684.74 719.23 673.89 641.82 741.93 680.3 812.2 646.07"/><polygon class="cls-4" points="1159.97 577.44 1087.04 605.56 1068.86 681.58 1019.58 620.9 941.66 627.1 984.14 561.48 954.17 489.29 1029.7 509.42 1089.1 458.61 1093.3 536.66 1159.97 577.44"/><polygon class="cls-4" points="1068.21 748.44 1136.5 786.46 1206.54 751.76 1191.48 828.46 1246.13 884.35 1168.53 893.73 1132.26 962.97 1099.36 892.06 1022.3 878.97 1079.57 825.77 1068.21 748.44"/><polygon class="cls-4" points="1068.28 65.91 1087.26 141.74 1160.48 169.09 1094.23 210.57 1090.84 288.66 1030.92 238.47 955.6 259.38 984.82 186.88 941.66 121.72 1019.64 127.1 1068.28 65.91"/><polygon class="cls-4" points="707.86 359.74 775.5 320.56 781.58 242.63 839.74 294.86 915.73 276.56 884.03 348.01 924.92 414.62 847.17 406.56 796.45 466.03 780.1 389.6 707.86 359.74"/></g><path class="cls-5" d="M1768.54,1375.63c-1.49-41.59-36.85-72.08-69-93.34-37-24.48-111.92-72-111.92-72s-39.37-26.88-75.54-26.82c-92.48.17-250.27,31.31-284.5,3.93-75-60-92.94-116.89-62.85-199.21a654.07,654.07,0,0,0-200.54-31.46H964a654.13,654.13,0,0,0-200.55,31.46c30.1,82.32,12.15,139.21-62.85,199.21-34.23,27.38-192-3.76-284.49-3.93-36.18-.06-75.55,26.82-75.55,26.82s-75,47.5-111.91,72c-32.12,21.26-67.48,51.75-69,93.34-.55,15.38,10.85,36.38,17.75,45.47s22.86,28.42,43.06,29.13c36.92,1.3,58.38-.67,86.13-.23,32.73.51,65.53.63,98.27.75,54.17.2,108.34.74,162.5.73l396.61,0h0l396.85,0c54.17,0,108.33-.53,162.5-.73,32.74-.12,65.54-.24,98.28-.75,27.74-.44,49.2,1.53,86.13.23,20.19-.71,36.15-20,43-29.13S1769.09,1391,1768.54,1375.63Z"/><ellipse class="cls-6" cx="1425.68" cy="1054.87" rx="212.01" ry="201.2"/><path class="cls-7" d="M1164.77,988.21c-30.09,82.32-12.14,139.21,62.85,199.21,47.62,38.09,174.27,92,258.75,60.28-128.63-11.6-195.85-98.4-194.17-116.15,8.08-85.35,20.63-171,99.14-229.5,38.93-29,74.78-37.23,118.23-27.25a157.06,157.06,0,0,1,28.08,9.19c-39.06-59.3-99-60.2-156.5-52-84.1,11.93-141.91,67.1-193.26,130C1180.52,971,1172.49,979.46,1164.77,988.21Z"/><path class="cls-8" d="M1635.3,1021.29c-50.31-30.65-111.58-34.39-166.43-26.76-42.94,6-67.92,40.3-69.76,67.46s26.43,60.78,63.17,67.37c47.16,8.45,102.72,16.78,161.1-1.69C1639.35,1090.24,1644.44,1048.38,1635.3,1021.29Z"/><g class="cls-9"><path class="cls-10" d="M1564.8,1549.3c-73.45-4.59-417.87-55.47-600.57-56.78H964c-182.71,1.31-527.13,52.19-600.57,56.78-20.22,1.26-100-10.18-115.77-23.51,2.2,14.33,30.49,57.59,38.08,68,79.32,108.3,177.78,168,313.32,215.61,119.16,41.85,241.05,59.41,364.94,58.91h0c124,.52,246-17,365.18-58.91,135.55-47.6,234-107.31,313.32-215.61,7.59-10.37,35.88-53.63,38.08-68C1664.79,1539.12,1585,1550.56,1564.8,1549.3Z"/></g><path class="cls-11" d="M964.11,1451.46c-10.07,0-732.08-1.52-747.06-1.54,7.78,28.13,12.48,62.65,37.36,82,16.14,12.54,37.17,16.6,57.48,18.92,93.35,10.65,175.22-10.16,261.22-20.63,75.07-9.14,150-20.37,225.29-26.56,56-4.59,109.51-7.3,165.7-7.85,56.19.55,109.74,3.26,165.7,7.85,75.32,6.19,150.22,17.42,225.29,26.56,86,10.47,167.88,31.28,261.23,20.63,20.31-2.32,41.34-6.38,57.48-18.92,24.88-19.33,29.57-53.85,37.35-82C1696.19,1449.94,975.54,1451.44,964.11,1451.46Z"/><rect class="cls-12" x="777.31" y="1301" width="52.34" height="78.84" rx="26.17"/><rect class="cls-12" x="1098.55" y="1301" width="52.34" height="78.84" rx="26.17"/><ellipse class="cls-6" cx="502.52" cy="1054.87" rx="212.01" ry="201.2"/><path class="cls-7" d="M763.43,988.21c30.1,82.32,12.15,139.21-62.85,199.21-47.61,38.09-174.09,91.13-258.74,60.28,128.63-11.6,195.84-98.4,194.16-116.15-8.08-85.35-20.63-171-99.14-229.5-38.92-29-74.77-37.23-118.22-27.25A156.89,156.89,0,0,0,390.55,884c39.06-59.3,99-60.2,156.5-52,84.1,11.93,141.91,67.1,193.26,130C747.69,971,755.71,979.46,763.43,988.21Z"/><path class="cls-8" d="M292.91,1021.29c50.3-30.65,111.58-34.39,166.42-26.76,42.94,6,67.92,40.3,69.77,67.46s-26.44,60.78-63.18,67.37c-47.16,8.45-102.72,16.78-161.1-1.69C288.86,1090.24,283.77,1048.38,292.91,1021.29Z"/></g></g></svg>